<?xml version="1.0" encoding="UTF-8"?>
<svg width="112px" height="22px" viewBox="0 0 112 22" version="1.1" xmlns="http://www.w3.org/2000/svg" xmlns:xlink="http://www.w3.org/1999/xlink">
    <title>Artboard</title>
    <g id="Artboard" stroke="none" stroke-width="1" fill="none" fill-rule="evenodd">
        <g id="Logo" transform="translate(-0.000000, 2.000000)" fill="#FFFFFF" fill-rule="nonzero">
            <g id="Group_1" transform="translate(30.409091, 0.000000)">
                <path d="M12.5458946,0.275927137 L0.302668816,0.275927137 C0.215820661,0.279660521 0.134358638,0.318325169 0.0774010146,0.3828469 C0.0204433909,0.447368631 -0.0069951388,0.532066788 0.00152495512,0.617063616 L0.00152495512,3.23136545 C-0.00248841566,3.31308344 0.0271980761,3.39294052 0.0838725876,3.45288176 C0.140547099,3.512823 0.219423592,3.54778648 0.302668816,3.54986729 L4.63003478,3.54986729 L4.63003478,16.5766461 C4.62200077,16.6614517 4.64953874,16.7458058 4.70627994,16.8101997 C4.76302114,16.8745935 4.84405119,16.91345 4.93063011,16.9177826 L7.89270087,16.9177826 C8.08251687,16.913239 8.23529673,16.7631361 8.23992138,16.5766461 L8.23992138,3.54878944 L12.544249,3.54878944 C12.6273978,3.54656624 12.7061326,3.51154072 12.7626887,3.45161557 C12.8192448,3.39169041 12.8488571,3.31191459 12.8448443,3.23028761 L12.8448443,0.615985776 C12.8531997,0.531487504 12.8259656,0.44731418 12.7694835,0.383065163 C12.7130014,0.318816145 12.6322004,0.280098388 12.5458946,0.275927137 Z" id="Path_1"></path>
                <path d="M30.3643958,0.275927137 L27.4719886,0.275927137 C27.3749634,0.265643632 27.2781947,0.29741901 27.2069611,0.362952704 C27.1357276,0.428486399 27.0971044,0.521269133 27.1011812,0.617063616 L27.1011812,10.8700202 C27.1011812,12.620433 26.3837018,13.916536 24.2553991,13.916536 C22.1029611,13.916536 21.4090686,12.6231276 21.4090686,10.8700202 L21.4090686,0.615985776 C21.4188118,0.522904272 21.3853733,0.430460763 21.3180276,0.364295067 C21.2506818,0.29812937 21.1565896,0.265276823 21.061848,0.274849296 L18.1705379,0.274849296 C18.0735593,0.264546686 17.9768329,0.296334029 17.9056809,0.361889661 C17.8345288,0.427445293 17.7960358,0.520241785 17.800279,0.615985776 L17.800279,10.9837324 C17.800279,14.598809 19.8846992,17.1904762 24.2570447,17.1904762 C28.6540742,17.1904762 30.7132619,14.416654 30.7132619,11.006367 L30.7132619,0.615985776 C30.7267836,0.521856727 30.6942911,0.426979447 30.6256039,0.360026334 C30.5569167,0.29307322 30.4600939,0.26189991 30.3643958,0.275927137 Z" id="Path_2"></path>
                <path d="M44.7578656,10.4615187 C46.5405039,9.67732615 47.6511032,7.89919706 47.5553768,5.98255302 L47.5553768,5.29974114 C47.5553768,2.34430282 45.6355162,0.274849296 42.0014942,0.274849296 L36.0340187,0.274849296 C35.9370401,0.264546686 35.8403137,0.296334029 35.7691617,0.361889661 C35.6980096,0.427445293 35.6595166,0.520241785 35.6637598,0.615985776 L35.6637598,16.5766461 C35.6595166,16.6723901 35.6980096,16.7651866 35.7691617,16.8307422 C35.8403137,16.8962978 35.9370401,16.9280852 36.0340187,16.9177826 L38.9269744,16.9177826 C39.021716,16.927355 39.1158082,16.8945025 39.183154,16.8283368 C39.2504997,16.7621711 39.2839381,16.6697276 39.274195,16.5766461 L39.274195,11.0290017 L41.2642677,11.0290017 L44.1802618,16.5766461 C44.3190403,16.8040704 44.4117421,16.9177826 44.7123375,16.9177826 L47.8828502,16.9177826 C47.9930102,16.9325222 48.1013293,16.8804664 48.1571088,16.7859801 C48.2128882,16.6914938 48.2050919,16.5732712 48.1373689,16.4866464 L44.7578656,10.4615187 Z M43.9482329,5.93458912 C43.9482329,7.20805753 43.2768302,7.98248584 41.7266798,7.98248584 L39.2736464,7.98248584 L39.2736464,3.45555625 L41.7266798,3.45555625 C43.2768302,3.45555625 43.9482329,4.2283678 43.9482329,5.47866264 L43.9482329,5.93458912 Z" id="Path_3"></path>
                <path d="M60.3087371,0.615985776 C60.2392773,0.390134074 60.0144742,0.246151665 59.7761129,0.274849296 L56.1662262,0.274849296 C55.9477755,0.262082228 55.7519568,0.406372928 55.7032656,0.615985776 L50.7044969,16.5308379 C50.6353819,16.7350886 50.7275352,16.9172437 50.9590156,16.9172437 L53.7126443,16.9172437 C53.943677,16.9383389 54.1573617,16.795136 54.2216816,16.5761072 L55.285833,13.1658202 L60.6778988,13.1658202 L61.7201089,16.5761072 C61.8128108,16.8035315 61.9055126,16.9172437 62.1589342,16.9172437 L65.1440433,16.9172437 C65.239695,16.919807 65.3297914,16.8732069 65.3817783,16.7942814 C65.4337652,16.7153558 65.4401258,16.6155164 65.398562,16.5308379 L60.3087371,0.615985776 Z M56.282515,9.96032293 L56.6066971,8.8916442 C57.1157345,7.27488363 57.671397,5.25393292 57.948954,3.86729128 L58.0411073,3.86729128 C58.295626,5.23129828 58.8743269,7.30021288 59.3372876,8.8463749 L59.6845081,9.96032293 L56.282515,9.96032293 Z" id="Path_4"></path>
                <path d="M75.8371187,7.20913537 C72.7362695,6.14045663 72.0418284,5.70878156 72.0418284,4.75381499 C72.0418284,3.77621376 72.944163,3.13705442 74.3100067,3.13705442 C75.6061869,3.13705442 76.3944269,3.61453771 76.855742,4.68321644 C76.8892511,4.79858647 76.9732602,4.89333271 77.0849855,4.94175962 C77.1967108,4.99018653 77.3245726,4.98727488 77.4338943,4.93381433 L79.6784857,4.13782921 C80.0026679,4.02411705 80.0948212,3.8651356 80.0026679,3.61507663 C79.1924867,1.27346841 77.1563373,0 74.2403432,0 C70.7692351,0 68.4089035,2.20526141 68.4089035,4.82010217 C68.4089035,7.43494293 69.7741987,8.84421922 73.3840853,10.1176876 C75.8831954,10.9799599 76.5107156,11.391156 76.5107156,12.3461226 C76.5107156,13.370071 75.5156792,14.0512661 74.0116055,14.0512661 C72.3917916,14.0512661 71.4658702,13.437436 71.1652749,12.1650454 C71.0956114,11.8465436 70.9337946,11.7554661 70.6096124,11.8697172 L68.2032042,12.6425287 C68.0980813,12.6701394 68.010042,12.7406871 67.9613787,12.8363083 C67.9127153,12.9319296 67.9080942,13.0434556 67.9486855,13.1426467 C68.6892032,15.7801221 70.7461968,17.1893984 74.0373865,17.1893984 C77.6703114,17.1893984 80.1694215,14.9841369 80.1694215,12.1192372 C80.1639362,9.71026397 78.8694015,8.25517946 75.8371187,7.20913537 Z" id="Path_5"></path>
            </g>
            <g id="Group_2">
                <path d="M21.2755359,2.13045988 C21.2919203,2.10612885 21.2950357,2.07536192 21.2838542,2.04830848 C20.9788788,1.3385653 20.595385,0.664296612 20.1403615,0.0377899155 C20.1237475,0.0140610409 20.0963718,0 20.0671602,0 L10.2077243,0 C10.1587207,0 10.118995,0.039232735 10.118995,0.0876284308 L10.118995,17.0655842 C10.1188424,17.1113305 10.1543471,17.1494957 10.2005151,17.1532124 C10.5077386,17.1778578 10.7550702,17.1904762 11.0561937,17.1904762 C11.4362027,17.1911989 11.8160058,17.1729196 12.1941408,17.1356867 C12.23965,17.1311702 12.274226,17.093229 12.2739968,17.0480586 L12.2739968,2.16934488 L21.2023346,2.16934488 C21.2317536,2.16916976 21.2591718,2.15460502 21.2755359,2.13045988 Z" id="Path_6"></path>
                <path d="M21.8694644,4.02651417 C21.8606019,3.98600217 21.8243665,3.95695932 21.7823993,3.95695932 L13.8644609,3.95695932 C13.8154574,3.95695932 13.7757321,3.99619178 13.7757321,4.04458748 L13.7757321,16.7594333 C13.7757321,16.7865434 13.7884108,16.8121333 13.8101082,16.8287401 C13.8318055,16.845347 13.8600642,16.8511006 13.8866431,16.8443231 C14.5761087,16.6637543 15.2450581,16.4139915 15.8830417,16.0989361 C15.9135966,16.0842545 15.9329782,16.0536287 15.9329516,16.0200707 L15.9329516,6.12630393 L22.0269581,6.12630393 C22.0508323,6.12616158 22.0736543,6.11658204 22.0903265,6.09970499 C22.1069987,6.08282794 22.1161322,6.06005944 22.1157025,6.03648506 C22.1000998,5.36017363 22.0176338,4.68698466 21.8694644,4.02651417 L21.8694644,4.02651417 Z" id="Path_7"></path>
                <path d="M8.46032105,3.9569319 L0.330542634,3.9569319 C0.288500508,3.9569319 0.252148538,3.9858861 0.243477476,4.02651417 C0.0961631063,4.68724777 0.0146252005,5.36062493 0,6.03703274 C-0.000570277736,6.06065038 0.00851322593,6.08350592 0.0252183687,6.10041628 C0.0419235115,6.11732665 0.0648348217,6.12685899 0.0887565908,6.1268516 L6.39404858,6.1268516 L6.39404858,16.1181047 C6.39403455,16.1523946 6.41415052,16.1835828 6.44562221,16.1980654 C7.08543945,16.496966 7.75433675,16.7309284 8.44202073,16.8963523 C8.44883861,16.8971121 8.45572139,16.8971121 8.46253927,16.8963523 C8.51154285,16.8963523 8.5512681,16.8571199 8.5512681,16.8087242 L8.5512681,4.04458748 C8.5512681,4.02096245 8.5416235,3.99833535 8.52450073,3.98183744 C8.50737796,3.96533952 8.48423534,3.95636869 8.46032105,3.9569319 Z" id="Path_8"></path>
                <path d="M8.46032105,0.00164302798 L2.0457817,0.00164302798 C2.01657017,0.00157153995 1.98919443,0.0157040689 1.97258042,0.0394329435 C1.51753008,0.665922777 1.1340346,1.34019449 0.829087709,2.04995151 C0.817850757,2.07705646 0.820975034,2.10790283 0.837425604,2.13227259 C0.853876175,2.15664234 0.881505749,2.1713545 0.91116187,2.17153558 L8.46032105,2.17153558 C8.50932463,2.17153558 8.54904987,2.13230312 8.54904987,2.08390742 L8.54904987,0.0876284308 C8.5481431,0.039875579 8.50868221,0.00164302798 8.46032105,0.00164302798 L8.46032105,0.00164302798 Z" id="Path_9"></path>
            </g>
        </g>
    </g>
</svg>