<svg xmlns="http://www.w3.org/2000/svg" width="200" height="31.894" viewBox="0 0 200 31.894">
  <g id="Group_3" data-name="Group 3" transform="translate(-28.076 -26.349)">
    <g id="Group_1" data-name="Group 1" transform="translate(81.938 26.349)">
      <path id="Path_1" data-name="Path 1" d="M396.72,29.6H374.4a.577.577,0,0,0-.549.633v4.851a.564.564,0,0,0,.549.591h7.889V59.847a.58.58,0,0,0,.548.633h5.4a.649.649,0,0,0,.633-.633V35.673h7.847a.564.564,0,0,0,.548-.591V30.231A.576.576,0,0,0,396.72,29.6Z" transform="translate(-373.854 -29.092)" fill="#112a46"/>
      <path id="Path_2" data-name="Path 2" d="M605.03,29.6h-5.273a.611.611,0,0,0-.676.633V49.258c0,3.248-1.308,5.653-5.188,5.653-3.924,0-5.189-2.4-5.189-5.653V30.231a.577.577,0,0,0-.633-.633H582.8a.61.61,0,0,0-.675.633V49.469c0,6.708,3.8,11.517,11.771,11.517,8.016,0,11.77-5.147,11.77-11.475V30.231A.559.559,0,0,0,605.03,29.6Z" transform="translate(-549.68 -29.092)" fill="#112a46"/>
      <path id="Path_3" data-name="Path 3" d="M807.781,48.5a8.642,8.642,0,0,0,5.1-8.311V38.922c0-5.484-3.5-9.324-10.125-9.324H791.877a.61.61,0,0,0-.675.633V59.847a.61.61,0,0,0,.675.633h5.274a.577.577,0,0,0,.633-.633V49.553h3.628l5.316,10.294c.253.422.422.633.97.633h5.78a.5.5,0,0,0,.464-.8Zm-1.476-8.4c0,2.363-1.224,3.8-4.05,3.8h-4.472V35.5h4.472c2.826,0,4.05,1.434,4.05,3.754Z" transform="translate(-726.191 -29.092)" fill="#112a46"/>
      <path id="Path_4" data-name="Path 4" d="M984.522,30.231a.9.9,0,0,0-.971-.633h-6.581a.816.816,0,0,0-.844.633l-9.113,29.531c-.126.379.042.717.464.717h5.02a.881.881,0,0,0,.928-.633l1.94-6.328h9.83l1.9,6.328c.169.422.338.633.8.633h5.442a.5.5,0,0,0,.464-.717ZM977.182,47.57l.591-1.983c.928-3,1.941-6.75,2.447-9.323h.168c.464,2.531,1.519,6.37,2.363,9.239l.633,2.067Z" transform="translate(-874.582 -29.092)" fill="#112a46"/>
      <path id="Path_5" data-name="Path 5" d="M1183.172,39.722c-5.653-1.983-6.919-2.784-6.919-4.556,0-1.814,1.645-3,4.135-3,2.363,0,3.8.886,4.641,2.869a.749.749,0,0,0,1.054.465l4.092-1.477c.591-.211.759-.506.591-.97-1.477-4.345-5.189-6.708-10.505-6.708-6.328,0-10.631,4.092-10.631,8.944s2.489,7.467,9.07,9.83c4.556,1.6,5.7,2.363,5.7,4.135,0,1.9-1.814,3.164-4.556,3.164-2.953,0-4.641-1.139-5.189-3.5-.127-.591-.422-.76-1.013-.548l-4.387,1.434a.693.693,0,0,0-.464.928c1.35,4.894,5.1,7.509,11.1,7.509,6.623,0,11.179-4.092,11.179-9.408C1191.06,44.363,1188.7,41.663,1183.172,39.722Z" transform="translate(-1044.923 -26.349)" fill="#112a46"/>
    </g>
    <g id="Group_2" data-name="Group 2" transform="translate(28.076 26.855)">
      <path id="Path_6" data-name="Path 6" d="M165.336,33.487a.161.161,0,0,0,.015-.15,19.1,19.1,0,0,0-2.062-3.671.16.16,0,0,0-.132-.069H145.378a.16.16,0,0,0-.16.16v31a.16.16,0,0,0,.147.16c.554.045,1,.068,1.543.068a20.278,20.278,0,0,0,2.052-.1.16.16,0,0,0,.144-.16V33.558h16.1A.16.16,0,0,0,165.336,33.487Z" transform="translate(-126.971 -29.597)" fill="#112a46"/>
      <path id="Path_7" data-name="Path 7" d="M202.135,76.108a.161.161,0,0,0-.157-.127H187.7a.16.16,0,0,0-.16.16V99.357a.16.16,0,0,0,.2.155,18.857,18.857,0,0,0,3.6-1.361.16.16,0,0,0,.09-.144V79.942h10.989a.161.161,0,0,0,.16-.164A18.961,18.961,0,0,0,202.135,76.108Z" transform="translate(-162.699 -68.756)" fill="#112a46"/>
      <path id="Path_8" data-name="Path 8" d="M43.332,75.981H28.672a.16.16,0,0,0-.157.127,18.949,18.949,0,0,0-.439,3.671.16.16,0,0,0,.16.164h11.37V98.186a.161.161,0,0,0,.093.146,18.853,18.853,0,0,0,3.6,1.275.165.165,0,0,0,.037,0,.16.16,0,0,0,.16-.16V76.141A.16.16,0,0,0,43.332,75.981Z" transform="translate(-28.076 -68.756)" fill="#112a46"/>
      <path id="Path_9" data-name="Path 9" d="M51.367,29.6H39.8a.16.16,0,0,0-.132.069,19.093,19.093,0,0,0-2.062,3.671.161.161,0,0,0,.148.222H51.367a.16.16,0,0,0,.16-.16V29.757A.16.16,0,0,0,51.367,29.6Z" transform="translate(-36.111 -29.597)" fill="#112a46"/>
    </g>
  </g>
</svg>
